<?xml version="1.0" encoding="UTF-8" standalone="no"?>
<!-- Created with Inkscape (http://www.inkscape.org/) -->
<svg
   xmlns:dc="http://purl.org/dc/elements/1.1/"
   xmlns:cc="http://creativecommons.org/ns#"
   xmlns:rdf="http://www.w3.org/1999/02/22-rdf-syntax-ns#"
   xmlns:svg="http://www.w3.org/2000/svg"
   xmlns="http://www.w3.org/2000/svg"
   xmlns:sodipodi="http://sodipodi.sourceforge.net/DTD/sodipodi-0.dtd"
   xmlns:inkscape="http://www.inkscape.org/namespaces/inkscape"
   width="555.09399"
   height="209.65393"
   id="svg2727"
   sodipodi:version="0.32"
   inkscape:version="0.46"
   sodipodi:docname="4.svg"
   inkscape:output_extension="org.inkscape.output.svg.inkscape"
   version="1.0">
  <defs
     id="defs2729">
    <inkscape:perspective
       sodipodi:type="inkscape:persp3d"
       inkscape:vp_x="0 : 526.18109 : 1"
       inkscape:vp_y="0 : 1000 : 0"
       inkscape:vp_z="744.09448 : 526.18109 : 1"
       inkscape:persp3d-origin="372.04724 : 350.78739 : 1"
       id="perspective2735" />
  </defs>
  <sodipodi:namedview
     id="base"
     pagecolor="#ffffff"
     bordercolor="#666666"
     borderopacity="1.0"
     gridtolerance="10000"
     guidetolerance="10"
     objecttolerance="10"
     inkscape:pageopacity="0.0"
     inkscape:pageshadow="2"
     inkscape:zoom="0.35"
     inkscape:cx="375"
     inkscape:cy="520"
     inkscape:document-units="px"
     inkscape:current-layer="layer1"
     showgrid="false"
     inkscape:window-width="1024"
     inkscape:window-height="1250"
     inkscape:window-x="1276"
     inkscape:window-y="-4" />
  <metadata
     id="metadata2732">
    <rdf:RDF>
      <cc:Work
         rdf:about="">
        <dc:format>image/svg+xml</dc:format>
        <dc:type
           rdf:resource="http://purl.org/dc/dcmitype/StillImage" />
      </cc:Work>
    </rdf:RDF>
  </metadata>
  <g
     inkscape:label="Layer 1"
     inkscape:groupmode="layer"
     id="layer1"
     transform="translate(-85.310141,-324.67807)">
    <g
       transform="matrix(1.25,0,0,1.25,85.310141,321.47983)"
       id="Layer_x0020_1"
       style="font-size:12px;fill-rule:nonzero;stroke:#000000;stroke-miterlimit:4;font-family:TimesNewRomanPSMT">
		<path
   style="fill:none;stroke-width:2"
   d="M 169,84.94873 C 169,90.544434 142.08154,95.081543 108.875,95.081543 C 75.668945,95.081543 48.731445,90.345215 48.731445,84.749512"
   id="path7" />

		<path
   style="fill:none;stroke-width:2;stroke-dasharray:2, 2"
   d="M 48.750488,84.94873 C 48.750488,79.353027 75.668945,74.815918 108.875,74.815918 C 142.08154,74.815918 169,79.353027 169,84.94873"
   id="path9" />

		<text
   transform="translate(67.5,91.54834)"
   id="text11">
  <tspan
     x="0"
     y="0"
     style="font-size:9px;stroke:none"
     id="tspan13">equator</tspan>
</text>

		<text
   transform="translate(51.799805,20.248535)"
   id="text15">
  <tspan
     x="0"
     y="0"
     style="font-size:9px;stroke:none"
     id="tspan17">Greenwich</tspan>
</text>

		<path
   style="fill:none"
   id="path19" />

		<g
   id="g21">
			<path
   style="fill:none"
   d="M 169.07959,84.650879 C 169.07959,117.9292 142.32959,144.90771 109.33008,144.90771 C 76.33252,144.90771 49.583984,117.9292 49.583984,84.650879 C 49.583984,51.373047 76.33252,24.395996 109.33008,24.395996 C 142.32959,24.395996 169.07959,51.373047 169.07959,84.650879 L 169.07959,84.650879 z"
   id="path23" />

		</g>

		<g
   style="fill:none"
   id="g25">
			<path
   d="M 108.98877,144.92627 C 89.658691,144.92627 74.252441,117.68213 74.252441,84.405762 C 74.252441,51.124512 89.926758,24.148926 109.25391,24.148926"
   id="path27" />

			<path
   d="M 109.25391,24.148926 C 129.52295,24.148926 145.95459,51.126953 145.95459,84.405762 C 145.95459,117.68213 129.52295,144.66064 109.25391,144.66064"
   id="path29" />

		</g>

		<g
   style="fill:none"
   id="g31">
			<path
   d="M 109.47168,144.72607 C 83.229492,144.72607 62.314941,117.48193 62.314941,84.205566 C 62.314941,50.924316 83.59375,23.948731 109.83203,23.948731"
   id="path33" />

			<path
   d="M 109.83203,23.94873 C 136.07617,23.94873 157.35107,50.92627 157.35107,84.205566 C 157.35107,117.48193 136.07617,144.46045 109.83203,144.46045"
   id="path35" />

		</g>

		<path
   style="fill:none;stroke-width:2"
   d="M 108.99951,25.141113 C 102.61035,25.141113 97.429688,51.918945 97.429688,84.950684 C 97.429688,117.979 102.6123,144.75732 108.99951,144.75732"
   id="path37" />

		<path
   style="fill:none;stroke-dasharray:2, 2"
   d="M 108.99951,144.75732 C 115.39014,144.75732 120.5708,117.979 120.5708,84.950684 C 120.5708,51.918945 115.39014,25.141113 108.99951,25.141113"
   id="path39" />

		<g
   style="fill:none"
   id="g41">
			<path
   d="M 109.48389,145.05908 C 96.21875,145.05908 85.648438,117.96533 85.648438,84.872559 C 85.648438,51.775391 96.40332,24.94873 109.6665,24.94873"
   id="path43" />

			<path
   d="M 109.6665,24.94873 C 122.93164,24.94873 133.68457,51.777344 133.68457,84.872559 C 133.68457,117.96533 122.93164,144.79443 109.6665,144.79443"
   id="path45" />

		</g>

		<path
   style="fill:none;stroke-dasharray:2, 2"
   d="M 97.5,94.94873 L 109.33203,84.651855 L 133,93.94873"
   id="path47" />

		<path
   style="fill:none;stroke-dasharray:2, 2"
   id="path49" />

		<path
   d="M 133.20801,65.199707 C 133.20801,65.590332 132.8916,65.906738 132.50098,65.906738 C 132.11035,65.906738 131.79199,65.590332 131.79199,65.199707 C 131.79199,64.807129 132.11035,64.490723 132.50098,64.490723 C 132.8916,64.490723 133.20801,64.807129 133.20801,65.199707 z"
   id="path51" />

		<path
   style="fill:none;stroke-dasharray:2, 2"
   d="M 108,24.44873 L 109.33203,84.651855 L 132,65.44873"
   id="path53" />

		<path
   d="M 110.58301,84.512207 C 110.58301,84.902832 110.2666,85.219238 109.87598,85.219238 C 109.48535,85.219238 109.16699,84.902832 109.16699,84.512207 C 109.16699,84.119629 109.48535,83.803223 109.87598,83.803223 C 110.2666,83.803223 110.58301,84.119629 110.58301,84.512207 z"
   id="path55" />

		<path
   style="fill:none"
   d="M 134.25,89.44873 L 138.25,89.44873 L 138.25,93.69873"
   id="path57" />

		<path
   style="fill:none"
   d="M 115.25,78.94873 C 118,80.94873 117.75,84.69873 117,87.69873 C 116.32227,90.410645 107.5,89.94873 104.5,88.19873"
   id="path59" />

		<g
   style="fill:none"
   id="g61">
			<g
   id="g63">
				<path
   d="M 190.13232,25.325684 C 183.19434,25.325684 177.28369,52.243652 177.28369,85.564941 C 177.28369,118.88623 182.90918,145.8999 189.84717,145.8999 C 196.78711,145.8999 202.4126,118.88623 202.4126,85.564941 C 202.4126,52.243652 197.07178,25.325684 190.13232,25.325684 L 190.13232,25.325684 z"
   id="path65" />

			</g>

			<path
   d="M 29.563477,24.966797 C 22.625488,24.966797 17,52.043945 17,85.443848 C 17,118.84229 22.62793,145.91943 29.563477,145.91943"
   id="path67" />

			<path
   style="stroke-dasharray:2, 2"
   d="M 29.563477,24.966797 C 36.503418,24.966797 42.128906,52.043945 42.128906,85.443848 C 42.128906,118.84229 36.503418,145.91943 29.563477,145.91943"
   id="path69" />

			<path
   d="M 190.88037,25.324707 L 28.400391,24.94873"
   id="path71" />

			<path
   d="M 192.51074,146.29443 L 30.030762,145.91943"
   id="path73" />

		</g>

		<text
   transform="translate(133.58594,67.358887)"
   id="text75">
  <tspan
     x="0"
     y="0"
     style="stroke:none"
     id="tspan77">P</tspan>
</text>

		<text
   transform="translate(106.74902,105.85889)"
   id="text79">
  <tspan
     x="0"
     y="0"
     style="stroke:none;font-family:Symbol"
     id="tspan81">λ</tspan>
</text>

		<text
   transform="translate(123.24902,84.858887)"
   id="text83">
  <tspan
     x="0"
     y="0"
     style="stroke:none;font-family:Symbol"
     id="tspan85">φ</tspan>
</text>

		<path
   d="M 115.3335,83.781738 L 122.8335,82.44873"
   id="path87" />

		<path
   id="path89" />

		<path
   d="M 111.5,87.94873 L 111.5,100.61572"
   id="path91" />

		<text
   transform="translate(105.00439,21.275391)"
   id="text93">
  <tspan
     x="0"
     y="0"
     style="stroke:none"
     id="tspan95">N</tspan>
</text>

		<text
   transform="translate(105.3374,154.94189)"
   id="text97">
  <tspan
     x="0"
     y="0"
     style="stroke:none"
     id="tspan99">S</tspan>
</text>

		<text
   transform="translate(185.6665,103.2749)"
   id="text101">
  <tspan
     x="0"
     y="0"
     style="stroke:none"
     id="tspan103">x</tspan>
</text>

		<path
   style="stroke:none"
   d="M 38,90.44873 L 57,89.44873"
   id="path105" />

		<path
   style="stroke-width:0.5"
   d="M 93,16.94873 L 103.5,30.94873"
   id="path107" />

		<path
   style="fill:none"
   d="M 57.985352,55.498535 C 57.985352,58.654785 80.937988,61.215332 109.25146,61.215332 C 137.56348,61.215332 160.5166,58.654785 160.5166,55.498535"
   id="path109" />

		<path
   style="fill:none"
   d="M 63.151856,47.931152 C 63.151856,51.087402 83.959473,53.647949 109.62549,53.647949 C 135.29199,53.647949 156.09961,51.087402 156.09961,47.931152"
   id="path111" />

		<text
   transform="translate(132.66748,104.27686)"
   id="text113">
  <tspan
     x="0"
     y="0"
     style="stroke:none"
     id="tspan115">M</tspan>
</text>

		<text
   transform="matrix(1.062704,0,0,1,102.66602,11.458008)"
   id="text117">
  <tspan
     x="0"
     y="0"
     style="font-size:11.29189968px;stroke:none"
     id="tspan119">y</tspan>
</text>

		<g
   style="stroke:none"
   id="g121">
			<g
   id="g123">
				<path
   d="M 98.833008,9.1113281 L 98.833008,163.90479"
   id="path125" />

				<path
   d="M 99.857422,166.12842 C 100.35645,164.57275 100.81641,163.56104 101.34961,162.31299 L 96.304688,162.31299 C 96.530273,162.75928 97.297852,164.57275 97.795898,166.12842 C 98.331055,167.79346 98.696289,169.30322 98.827148,170.28174 C 98.958008,169.30322 99.323242,167.79346 99.857422,166.12842 L 99.857422,166.12842 z"
   id="path127" />

				<path
   d="M 97.808594,6.8891602 C 97.30957,8.4448243 96.849609,9.4560547 96.316406,10.704102 L 101.36133,10.704102 C 101.13574,10.257324 100.36816,8.4448243 99.870117,6.8891602 C 99.334961,5.2241211 98.969727,3.7138672 98.838867,2.7348633 C 98.708008,3.7138672 98.342774,5.2241211 97.808594,6.8891602 L 97.808594,6.8891602 z"
   id="path129" />

			</g>

			<g
   id="g131">
				<path
   style="fill:none;stroke:#000000;stroke-width:0.75"
   d="M 98.833008,9.1113281 L 98.833008,163.90479"
   id="path133" />

				<path
   d="M 99.601562,165.57178 C 99.975586,164.40479 100.32031,163.64697 100.7207,162.71045 L 96.936523,162.71045 C 97.106445,163.04639 97.681641,164.40479 98.055664,165.57178 C 98.456055,166.8208 98.730469,167.95361 98.829101,168.68701 C 98.926758,167.95361 99.200195,166.8208 99.601562,165.57178 L 99.601562,165.57178 z"
   id="path135" />

				<path
   d="M 98.064453,7.4443359 C 97.69043,8.6113281 97.345703,9.3696289 96.945312,10.306152 L 100.72949,10.306152 C 100.55957,9.9707031 99.984375,8.6113281 99.610352,7.4443359 C 99.209961,6.1958007 98.935547,5.0634765 98.836914,4.3291015 C 98.739258,5.0634765 98.46582,6.1958007 98.064453,7.4443359 L 98.064453,7.4443359 z"
   id="path137" />

			</g>

		</g>

		<g
   style="stroke:none"
   id="g139">
			<g
   id="g141">
				<path
   d="M 7.6206055,94.477051 L 192.59326,94.477051"
   id="path143" />

				<path
   d="M 195.25049,93.452637 C 193.39111,92.953613 192.18213,92.493652 190.69092,91.960449 L 190.69092,97.005371 C 191.22412,96.779785 193.39111,96.012207 195.25049,95.51416 C 197.23975,94.979004 199.04443,94.61377 200.21338,94.48291 C 199.04443,94.352051 197.23975,93.986816 195.25049,93.452637 L 195.25049,93.452637 z"
   id="path145" />

				<path
   d="M 4.9643555,95.501465 C 6.8227539,96.000488 8.0307618,96.460449 9.5219727,96.993652 L 9.5219727,91.94873 C 8.9887696,92.174316 6.8227539,92.941894 4.9643555,93.439941 C 2.9741211,93.975098 1.1694336,94.340332 0,94.471191 C 1.1694336,94.602051 2.9741211,94.967285 4.9643555,95.501465 z"
   id="path147" />

			</g>

			<g
   id="g149">
				<path
   style="fill:none;stroke:#000000;stroke-width:0.75"
   d="M 7.6206055,94.477051 L 192.59326,94.477051"
   id="path151" />

				<path
   d="M 194.58545,93.708496 C 193.19092,93.334473 192.28467,92.989746 191.16553,92.589356 L 191.16553,96.373535 C 191.56689,96.203613 193.19092,95.628418 194.58545,95.254395 C 196.07764,94.854004 197.43115,94.57959 198.30811,94.480957 C 197.43115,94.383301 196.07764,94.109863 194.58545,93.708496 L 194.58545,93.708496 z"
   id="path153" />

				<path
   d="M 5.6274414,95.245605 C 7.0229492,95.619629 7.9282227,95.964355 9.0473633,96.364746 L 9.0473633,92.580566 C 8.6469727,92.750488 7.0229492,93.325684 5.6274414,93.699707 C 4.1352539,94.100098 2.7817383,94.374512 1.9042969,94.473144 C 2.7817383,94.570801 4.1352539,94.844238 5.6274414,95.245605 L 5.6274414,95.245605 z"
   id="path155" />

			</g>

		</g>

		<text
   transform="matrix(1.062704,0,0,1,7.3320313,12.697754)"
   id="text157">
  <tspan
     x="0"
     y="0"
     style="font-size:11.29189968px;stroke:none"
     id="tspan159">(a)</tspan>
</text>

		<path
   style="fill:none;stroke:none"
   d="M 288.69922,156.36572 L 288.69922,166.11572"
   id="path161" />

		<path
   style="fill:none;stroke-width:2"
   d="M 343.12891,25.074707 C 337.5332,25.074707 332.99609,51.993652 332.99609,85.199707 C 332.99609,118.40674 337.73242,145.34424 343.32813,145.34424"
   id="path163" />

		<path
   style="fill:none;stroke-dasharray:2, 2"
   d="M 343.12891,145.32471 C 348.72461,145.32471 353.26172,118.40674 353.26172,85.199707 C 353.26172,51.993652 348.72461,25.074707 343.12891,25.074707"
   id="path165" />

		<g
   id="g167">
			<path
   style="fill:none"
   d="M 343.42676,24.995605 C 310.14844,24.995605 283.16992,51.745605 283.16992,84.744629 C 283.16992,117.74268 310.14844,144.49072 343.42676,144.49072 C 376.70508,144.49072 403.68164,117.74268 403.68164,84.744629 C 403.68164,51.745605 376.70508,24.995605 343.42676,24.995605 L 343.42676,24.995605 z"
   id="path169" />

		</g>

		<g
   style="fill:none"
   id="g171">
			<path
   d="M 283.15137,83.571777 C 283.15137,103.00244 310.39551,118.48975 343.67188,118.48975 C 376.95312,118.48975 403.92871,102.73389 403.92871,83.306152"
   id="path173" />

			<path
   d="M 403.92871,83.306152 C 403.92871,63.872558 376.95117,48.121094 343.67188,48.121094 C 310.39551,48.121094 283.41699,63.872558 283.41699,83.306152"
   id="path175" />

		</g>

		<g
   style="fill:none"
   id="g177">
			<path
   d="M 283.35156,85.430176 C 283.35156,111.2124 310.5957,131.76025 343.87207,131.76025 C 377.15332,131.76025 404.12891,110.854 404.12891,85.07666"
   id="path179" />

			<path
   d="M 404.12891,85.07666 C 404.12891,59.292481 377.15137,38.391113 343.87207,38.391113 C 310.5957,38.391113 283.61719,59.292481 283.61719,85.07666"
   id="path181" />

		</g>

		<path
   style="fill:none;stroke-width:2"
   d="M 402.93652,85.075684 C 402.93652,91.465332 376.1582,96.64502 343.12695,96.64502 C 310.09863,96.64502 283.32031,91.463379 283.32031,85.075684"
   id="path183" />

		<path
   style="fill:none;stroke-width:2;stroke-dasharray:2, 2"
   d="M 283.32031,85.075684 C 283.32031,78.685059 310.09863,73.504395 343.12695,73.504395 C 376.1582,73.504395 402.93652,78.685059 402.93652,85.075684"
   id="path185" />

		<g
   style="fill:none"
   id="g187">
			<path
   d="M 283.01855,84.591309 C 283.01855,97.855957 310.1123,108.42627 343.20508,108.42627 C 376.30273,108.42627 403.12891,97.672363 403.12891,84.408691"
   id="path189" />

			<path
   d="M 403.12891,84.408691 C 403.12891,71.143066 376.30078,60.391113 343.20508,60.391113 C 310.1123,60.391113 283.2832,71.143066 283.2832,84.408691"
   id="path191" />

		</g>

		<path
   style="fill:none;stroke-dasharray:2, 2"
   d="M 333.12891,96.574707 L 343.42578,84.742676 L 334.12891,61.074707"
   id="path193" />

		<path
   style="fill:none;stroke-dasharray:2, 2"
   id="path195" />

		<path
   d="M 364.61816,61.866699 C 364.61816,62.257324 364.30176,62.57373 363.91113,62.57373 C 363.52051,62.57373 363.20215,62.257324 363.20215,61.866699 C 363.20215,61.474121 363.52051,61.157715 363.91113,61.157715 C 364.30176,61.157715 364.61816,61.474121 364.61816,61.866699 z"
   id="path197" />

		<path
   style="fill:none;stroke-dasharray:2, 2"
   id="path199" />

		<path
   style="fill:none;stroke-dasharray:2, 2"
   d="M 363.03516,62.615723 L 343.42578,84.742676"
   id="path201" />

		<path
   d="M 344.11816,84.679199 C 344.11816,85.069824 343.80176,85.38623 343.41113,85.38623 C 343.02051,85.38623 342.70215,85.069824 342.70215,84.679199 C 342.70215,84.286621 343.02051,83.970215 343.41113,83.970215 C 343.80176,83.970215 344.11816,84.286621 344.11816,84.679199 z"
   id="path203" />

		<path
   style="fill:none"
   d="M 334.53516,56.115723 L 338.53516,56.115723 L 338.53516,60.365723"
   id="path205" />

		<path
   style="fill:none"
   id="path207" />

		<path
   style="fill:none;stroke-dasharray:2, 2"
   d="M 344.11816,84.679199 L 403.53516,85.115723"
   id="path209" />

		<path
   style="fill:none"
   d="M 341.28516,77.365723 C 338.17676,80.39209 335.78516,84.740723 339.02441,88.865723"
   id="path211" />

		<path
   style="fill:none"
   d="M 340.53516,77.615723 C 343.53516,76.365723 346.78516,76.115723 349.03516,79.115723"
   id="path213" />

		<g
   style="fill:none"
   id="g215">
			<g
   id="g217">
				<path
   d="M 430.25586,25.19043 C 422.73145,25.19043 416.32227,52.034668 416.32227,85.262207 C 416.32227,118.4917 422.42383,145.4292 429.94824,145.4292 C 437.47363,145.4292 443.5752,118.4917 443.5752,85.262207 C 443.5752,52.034668 437.78223,25.19043 430.25586,25.19043 L 430.25586,25.19043 z"
   id="path219" />

			</g>

			<path
   d="M 256.12012,24.83252 C 248.5957,24.83252 242.49512,51.834473 242.49512,85.141113 C 242.49512,118.44678 248.59766,145.44873 256.12012,145.44873"
   id="path221" />

			<path
   style="stroke-dasharray:2, 2"
   d="M 256.12012,24.83252 C 263.64648,24.83252 269.74707,51.834473 269.74707,85.141113 C 269.74707,118.44678 263.64648,145.44873 256.12012,145.44873"
   id="path223" />

			<path
   d="M 431.06738,25.189453 L 254.8584,24.814941"
   id="path225" />

		</g>

		<path
   style="fill:none"
   d="M 429.78809,145.28857 L 255.49512,144.90967"
   id="path227" />

		<text
   transform="translate(360.69824,61.525879)"
   id="text229">
  <tspan
     x="0"
     y="0"
     style="stroke:none"
     id="tspan231">P</tspan>
</text>

		<text
   transform="translate(320.78418,88.525879)"
   style="stroke:none"
   id="text233">
  <tspan
     x="0"
     y="0"
     style="font-family:Symbol"
     id="tspan235">λ</tspan>
  <tspan
     x="6.5878906"
     y="0"
     id="tspan237">'</tspan>
</text>

		<text
   transform="translate(342.78418,69.525879)"
   style="stroke:none"
   id="text239">
  <tspan
     x="0"
     y="0"
     style="font-family:Symbol"
     id="tspan241">φ</tspan>
  <tspan
     x="6.2519531"
     y="0"
     id="tspan243">'</tspan>
</text>

		<path
   style="fill:none"
   d="M 328.53516,85.782715 L 340.03516,84.615723"
   id="path245" />

		<path
   style="fill:none"
   d="M 342.20117,69.615723 L 344.36816,79.782715"
   id="path247" />

		<text
   transform="translate(342.86426,93.691895)"
   id="text249">
  <tspan
     x="0"
     y="0"
     style="stroke:none"
     id="tspan251">C</tspan>
</text>

		<text
   transform="translate(324.0332,106.02588)"
   id="text253">
  <tspan
     x="0"
     y="0"
     style="stroke:none"
     id="tspan255">O</tspan>
</text>

		<text
   transform="translate(406.70215,88.358887)"
   id="text257">
  <tspan
     x="0"
     y="0"
     style="stroke:none"
     id="tspan259">E</tspan>
</text>

		<text
   transform="translate(269.70215,90.359863)"
   id="text261">
  <tspan
     x="0"
     y="0"
     style="stroke:none"
     id="tspan263">W</tspan>
</text>

		<text
   transform="matrix(1.0264969,0,0,1,339.03906,22.800293)"
   id="text265">
  <tspan
     x="0"
     y="0"
     style="font-size:11.69019985px;stroke:none"
     id="tspan267">N</tspan>
</text>

		<text
   transform="translate(340.20605,155.77588)"
   id="text269">
  <tspan
     x="0"
     y="0"
     style="stroke:none"
     id="tspan271">S</tspan>
</text>

		<text
   transform="translate(421.86914,108.94385)"
   id="text273">
  <tspan
     x="0"
     y="0"
     style="stroke:none"
     id="tspan275">x,y'</tspan>
</text>

		<text
   transform="matrix(1.0668839,0,0,1,336.86816,11.247559)"
   id="text277">
  <tspan
     x="-1.22e-005"
     y="0"
     style="font-size:11.24769974px;stroke:none"
     id="tspan279">y</tspan>
</text>

		<g
   style="stroke:none"
   id="g281">
			<g
   id="g283">
				<path
   d="M 333.03516,8.909668 L 333.03516,163.09717"
   id="path285" />

				<path
   d="M 334.05957,165.31201 C 334.55859,163.76123 335.01855,162.75439 335.55176,161.51123 L 330.50684,161.51123 C 330.73242,161.95557 331.5,163.76123 331.99805,165.31201 C 332.5332,166.97021 332.89844,168.47412 333.0293,169.44873 C 333.16016,168.47412 333.52539,166.97021 334.05957,165.31201 L 334.05957,165.31201 z"
   id="path287" />

				<path
   d="M 332.01074,6.6958008 C 331.51172,8.2456055 331.05176,9.2529297 330.51855,10.496094 L 335.56348,10.496094 C 335.33789,10.05127 334.57031,8.2456055 334.07227,6.6958008 C 333.53711,5.0375977 333.17188,3.5336914 333.04102,2.5585938 C 332.91016,3.5336915 332.54492,5.0375977 332.01074,6.6958008 L 332.01074,6.6958008 z"
   id="path289" />

			</g>

			<g
   id="g291">
				<path
   style="fill:none;stroke:#000000;stroke-width:0.75"
   d="M 333.03516,8.909668 L 333.03516,163.09717"
   id="path293" />

				<path
   d="M 333.80371,164.75732 C 334.17773,163.59521 334.52246,162.83936 334.92285,161.90771 L 331.13867,161.90771 C 331.30859,162.24072 331.88379,163.59521 332.25781,164.75732 C 332.6582,166.00146 332.93262,167.12842 333.03125,167.86084 C 333.12891,167.12842 333.40234,166.00146 333.80371,164.75732 L 333.80371,164.75732 z"
   id="path295" />

				<path
   d="M 332.2666,7.2495117 C 331.89258,8.4121094 331.54785,9.1669922 331.14746,10.099609 L 334.93164,10.099609 C 334.76172,9.765625 334.18652,8.4121094 333.8125,7.2495117 C 333.41211,6.0053711 333.1377,4.8779297 333.03906,4.1464844 C 332.94141,4.8779297 332.66797,6.0053711 332.2666,7.2495117 L 332.2666,7.2495117 z"
   id="path297" />

			</g>

		</g>

		<text
   transform="matrix(1.0264969,0,0,1,288.29492,20.919922)"
   id="text299">
  <tspan
     x="7.0999999e-006"
     y="0"
     style="font-size:8.7677002px;stroke:none"
     id="tspan301">Greenwich</tspan>
</text>

		<text
   transform="translate(301.04199,92.98584)"
   id="text303">
  <tspan
     x="0"
     y="0"
     style="font-size:9px;stroke:none"
     id="tspan305">equator</tspan>
</text>

		<path
   style="fill:none;stroke:none"
   d="M 324.03516,20.615723 L 338.53516,31.615723"
   id="path307" />

		<path
   style="fill:none;stroke:none"
   d="M 338.53516,34.615723 L 319.53516,21.115723"
   id="path309" />

		<path
   style="fill:none"
   d="M 373.82715,33.475586 C 370.6709,33.475586 368.11035,56.428711 368.11035,84.741699 C 368.11035,113.05322 370.6709,136.00635 373.82715,136.00635"
   id="path311" />

		<path
   style="fill:none"
   d="M 381.39453,38.64209 C 378.23828,38.64209 375.67773,59.449219 375.67773,85.115723 C 375.67773,110.78174 378.23828,131.58936 381.39453,131.58936"
   id="path313" />

		<text
   transform="translate(319.96875,60.010742)"
   id="text315">
  <tspan
     x="0"
     y="0"
     style="stroke:none"
     id="tspan317">M'</tspan>
</text>

		<text
   transform="translate(336.53516,166.44189)"
   id="text319">
  <tspan
     x="0"
     y="0"
     style="stroke:none"
     id="tspan321">x'</tspan>
</text>

		<g
   style="stroke:none"
   id="g323">
			<g
   id="g325">
				<path
   d="M 236.71484,96.115723 L 421.6875,96.115723"
   id="path327" />

				<path
   d="M 424.34473,95.091309 C 422.48535,94.592285 421.27637,94.132324 419.78516,93.599121 L 419.78516,98.644043 C 420.31836,98.418457 422.48535,97.650879 424.34473,97.152832 C 426.33398,96.617676 428.13867,96.252442 429.30762,96.121582 C 428.13867,95.990723 426.33398,95.625488 424.34473,95.091309 L 424.34473,95.091309 z"
   id="path329" />

				<path
   d="M 234.05859,97.140137 C 235.91699,97.63916 237.125,98.099121 238.61621,98.632324 L 238.61621,93.587402 C 238.08301,93.812988 235.91699,94.580566 234.05859,95.078613 C 232.06836,95.613769 230.26367,95.979004 229.09375,96.109863 C 230.26367,96.240723 232.06836,96.605957 234.05859,97.140137 L 234.05859,97.140137 z"
   id="path331" />

			</g>

			<g
   id="g333">
				<path
   style="fill:none;stroke:#000000;stroke-width:0.75"
   d="M 236.71484,96.115723 L 421.6875,96.115723"
   id="path335" />

				<path
   d="M 423.67969,95.347168 C 422.28516,94.973145 421.37891,94.628418 420.25977,94.228027 L 420.25977,98.012207 C 420.66113,97.842285 422.28516,97.26709 423.67969,96.893067 C 425.17188,96.492676 426.52539,96.218262 427.40234,96.119629 C 426.52539,96.021973 425.17188,95.748535 423.67969,95.347168 L 423.67969,95.347168 z"
   id="path337" />

				<path
   d="M 234.72168,96.884277 C 236.11719,97.258301 237.02246,97.603027 238.1416,98.003418 L 238.1416,94.219238 C 237.74121,94.38916 236.11719,94.964355 234.72168,95.338379 C 233.22949,95.738769 231.87598,96.013183 230.99805,96.111816 C 231.87598,96.209473 233.22949,96.48291 234.72168,96.884277 L 234.72168,96.884277 z"
   id="path339" />

			</g>

		</g>

		<text
   transform="matrix(1.062704,0,0,1,231.86719,12.86377)"
   id="text341">
  <tspan
     x="0"
     y="0"
     style="font-size:11.29189968px;stroke:none"
     id="tspan343">(b)</tspan>
</text>

		<path
   style="stroke-width:0.5"
   d="M 328.25,18.07373 L 338.75,32.07373"
   id="path345" />

		<g
   id="g347">
		</g>

	</g>
  </g>
</svg>
